<?xml version="1.0" encoding="UTF-8" standalone="no"?> <svg id="profile-picture" viewBox="0 0 14 16" version="1.1" xmlns="http://www.w3.org/2000/svg"> <g> <path style="fill:#f4f5f7;" d="m 12.5,4.5 v 2 h -4 v -4 h -8 v -2 h 9 v 4 z" /> <path style="fill:#e0e9f8;" d="m 0.5,2 h 2 v 1.5 h -2 z m 7,0 h 2 v 1.5 h -2 z m 4,4 h 2 v 1.5 h -2 z" /> <path style="fill:#d6e3f5;" d="M 12,6 H 9 V 3 H 8 V 2 H 2 V 3 H 0.5 v 10.5 h 2 v -10 h 5 V 8 h 4 L 12,9 h 1 V 7 h -1 z m 0,6 v 1 l -0.5,0.5 v 1 h 2 v -2 L 13,12 Z" /> <path style="fill:#ccd9f4;" d="m 2,3 h 6 v 3 h 1 v 1 h 3 v 3 h -1 v 1 H 10 L 9.5,11.5 H 5 l -2.5,3 h -2 V 13 H 2 Z" /> <path style="fill:#ffffff" d="m 11,3 h 1 V 4 H 10 V 2 h 1 z M 6,4 H 7 V 6 H 2 V 5 H 3 V 4 H 4 V 3 h 2 z m 6,1 h 1 v 1 h -1 z" /> <path style="fill:#9cc7b5;" d="m 2,12 h 1 v -1 h 1 v -1 h 1 l 0.5,0.5 V 11 L 3,13.5 H 2.5 L 2,13 Z" /> <path style="fill:#b5cfd6;" d="m 6,9 h 2 v 1 h 2 v 1 L 9.5,11.5 H 6 Z" /> <path style="fill:#6bb763;" d="M 7.5,10.5 8,10 h 1 v 1.5 H 7.5 Z M 11,13 h 1 v 1.5 h -1 z" /> <path style="fill:#7ac372;" d="m 0.5,14 h 2 v 1.5 h -2 z m 13,0 v 1.5 H 12 V 14 Z" /> <path style="fill:#53b23c;" d="m 10,14 v 1.5 h 2 V 14 Z M 2,13 v 2.5 H 5.5 L 6,15 h 1 v -1 h 1 v -1 h 1 v -1 h 1 V 11 H 8 V 10 H 5 v 1 H 4 v 1 H 3 v 1 z" /> <path style="fill:#a4a1a4;" d="m 0,0 h 10 v 1 h 1 v 1 h 1 v 1 h 1 V 4 H 12 V 3 H 11 V 2 H 10 V 1 H 1 V 15.5 H 0.5 L 0,15 Z M 13.5,15.5 14,15 v -4 h -1 v 4.5 z" /> <path style="fill:#939193;" d="M 14,4 H 10 V 0 H 9 v 5 h 4 v 3 h 1 z M 9,16 h 5 V 15 H 9 Z M 0,16 H 6 V 15 H 0 Z" /> </g> </svg>